<svg width="255" height="255" viewBox="0 0 255 255" fill="none" xmlns="http://www.w3.org/2000/svg">
<path d="M147.155 20.0908C88.105 9.00053 31.1811 47.9234 20.0908 106.974C9.00058 166.024 47.9234 222.948 106.974 234.038C166.024 245.128 222.948 206.205 234.038 147.155C245.128 88.105 206.205 31.1811 147.155 20.0908ZM64.2677 131.218L59.1862 127.606C56.7802 126.267 56.059 123.033 57.7444 121.134L68.4735 104.102C69.8122 101.696 69.0109 98.8879 67.0317 97.6295L49.9998 86.9003C47.5938 85.5616 46.8726 82.3268 48.558 80.4279L51.8231 74.8394C53.1618 72.4334 56.3966 71.7122 58.2956 73.3976L75.3274 84.1267C77.7334 85.4654 80.5414 84.6641 81.7999 82.6849L92.529 65.653C93.8677 63.247 97.1025 62.5258 99.0015 64.2112L104.59 67.4763C106.996 68.815 107.717 72.0498 106.032 73.9488L95.3026 90.9806C93.9639 93.3866 94.7653 96.1946 96.7445 97.4531L113.776 108.182C116.182 109.521 116.904 112.756 115.218 114.655L112.037 119.811C110.699 122.217 107.464 122.938 105.565 121.253L88.4492 110.953C86.0432 109.614 83.2352 110.415 81.9768 112.395L71.2476 129.427C69.4815 131.755 66.6735 132.557 64.2676 131.218L64.2677 131.218ZM174.223 194.397C173.58 197.821 170.531 199.906 167.108 199.263L63.5576 179.815C60.1341 179.172 58.0493 176.123 58.6923 172.699L59.4962 168.419C60.1391 164.996 63.1881 162.911 66.6116 163.554L170.162 183.002C173.586 183.645 175.67 186.694 175.027 190.117L174.223 194.397ZM213.881 117.678L194.117 121.496C191.389 121.871 189.543 124.623 190.425 127.005L194.243 146.769C194.618 149.496 192.852 151.822 190.551 152.277L184.075 153.721C181.348 154.096 179.022 152.33 178.567 150.029L174.749 130.265C174.374 127.537 171.621 125.692 169.24 126.573L149.476 130.392C146.749 130.766 144.423 129.001 143.968 126.7L142.953 120.307C142.578 117.58 144.344 115.254 146.645 114.799L166.409 110.981C169.137 110.606 170.983 107.853 170.101 105.472L166.282 85.7083C165.908 82.9805 167.673 80.6546 169.974 80.2L176.367 79.185C179.095 78.8105 181.42 80.576 181.875 82.877L185.693 102.641C186.068 105.369 188.821 107.214 191.202 106.333L210.966 102.514C213.694 102.14 216.019 103.905 216.474 106.206L217.489 112.599C218.454 114.551 216.609 117.303 213.881 117.678L213.881 117.678Z" fill="#1C1C1C"/>
</svg>
