<svg width="59" height="59" viewBox="0 0 59 59" fill="none" xmlns="http://www.w3.org/2000/svg">
<path fill-rule="evenodd" clip-rule="evenodd" d="M50.3781 52.0501H41.6312C41.2065 52.0501 40.8624 51.7098 40.8624 51.29V28.5512C40.8624 28.131 41.2064 27.7911 41.6312 27.7911H50.3781C53.0197 27.7911 55.1689 29.9172 55.1689 32.5304V47.3107C55.1689 49.9244 53.0198 52.0504 50.3781 52.0504V52.0501ZM42.3995 50.5294H50.3781C52.1719 50.5294 53.6317 49.0853 53.6317 47.3103V32.53C53.6317 30.755 52.172 29.3109 50.3781 29.3109H42.3995V50.5294Z" fill="white"/>
<path fill-rule="evenodd" clip-rule="evenodd" d="M48.016 29.3124C47.5913 29.3124 47.2472 28.972 47.2472 28.5523V19.0777C47.2472 9.39694 39.286 1.52133 29.5002 1.52133C19.7144 1.52133 11.7531 9.39746 11.7531 19.0777V28.5523C11.7531 28.9725 11.4091 29.3124 10.9848 29.3124C10.5605 29.3124 10.216 28.972 10.216 28.5523V19.0777C10.216 8.5582 18.867 0 29.5002 0C40.1334 0 48.7844 8.55799 48.7844 19.0777V28.5523C48.7844 28.9725 48.4403 29.3124 48.016 29.3124H48.016Z" fill="white"/>
<path fill-rule="evenodd" clip-rule="evenodd" d="M48.016 27.4171C47.5913 27.4171 47.2472 27.0767 47.2472 26.6569C47.2472 16.9758 39.286 9.09951 29.5002 9.09951C19.7144 9.09951 11.7531 16.9756 11.7531 26.6569C11.7531 27.0771 11.4091 27.4171 10.9848 27.4171C10.5605 27.4171 10.216 27.0767 10.216 26.6569C10.216 16.1374 18.867 7.57924 29.5002 7.57924C40.1334 7.57924 48.7844 16.1372 48.7844 26.6569C48.7844 27.0771 48.4403 27.4171 48.016 27.4171H48.016Z" fill="white"/>
<path fill-rule="evenodd" clip-rule="evenodd" d="M45.4611 52.0501C45.0368 52.0501 44.6928 51.7098 44.6928 51.29V28.5512C44.6928 28.131 45.0368 27.7911 45.4611 27.7911C45.8854 27.7911 46.2299 28.1315 46.2299 28.5512V51.29C46.2299 51.7102 45.8859 52.0501 45.4611 52.0501Z" fill="white"/>
<path fill-rule="evenodd" clip-rule="evenodd" d="M56.3159 48.2605C54.8359 48.2605 53.6317 47.0695 53.6317 45.6052V34.2364C53.6317 32.7725 54.8355 31.5811 56.3159 31.5811C57.7958 31.5811 59 32.7722 59 34.2364V45.6052C59 47.0695 57.7962 48.2605 56.3159 48.2605V48.2605ZM56.3159 33.101C55.6837 33.101 55.1689 33.61 55.1689 34.2356V45.6045C55.1689 46.2301 55.6833 46.7392 56.3159 46.7392C56.948 46.7392 57.4629 46.2301 57.4629 45.6045V34.2356C57.4629 33.6097 56.9484 33.101 56.3159 33.101V33.101Z" fill="white"/>
<path fill-rule="evenodd" clip-rule="evenodd" d="M17.3693 52.0501H8.62237C5.9807 52.0501 3.83156 49.9241 3.83156 47.3104V32.5302C3.83156 29.9164 5.98059 27.7904 8.62237 27.7904H17.3693C17.7936 27.7904 18.1376 28.1308 18.1376 28.5506V51.2893C18.1376 51.7095 17.7936 52.0495 17.3693 52.0495V52.0501ZM8.62237 29.3113C6.82807 29.3113 5.36869 30.7554 5.36869 32.5305V47.3107C5.36869 49.0858 6.82838 50.5299 8.62237 50.5299H16.6009V29.3113H8.62237Z" fill="white"/>
<path fill-rule="evenodd" clip-rule="evenodd" d="M13.5385 52.0501C13.1143 52.0501 12.7702 51.7098 12.7702 51.29V28.5512C12.7702 28.131 13.1142 27.7911 13.5385 27.7911C13.9629 27.7911 14.3073 28.1315 14.3073 28.5512V51.29C14.3073 51.7102 13.9633 52.0501 13.5385 52.0501Z" fill="white"/>
<path fill-rule="evenodd" clip-rule="evenodd" d="M2.68413 48.2605C1.20421 48.2605 0 47.0695 0 45.6052V34.2364C0 32.7725 1.20379 31.5811 2.68413 31.5811C4.16405 31.5811 5.36826 32.7722 5.36826 34.2364V45.6052C5.36826 47.0695 4.16447 48.2605 2.68413 48.2605V48.2605ZM2.68413 33.101C2.05159 33.101 1.53713 33.61 1.53713 34.2356V45.6045C1.53713 46.2301 2.05156 46.7392 2.68413 46.7392C3.3167 46.7392 3.83113 46.2301 3.83113 45.6045V34.2356C3.83113 33.6097 3.3167 33.101 2.68413 33.101V33.101Z" fill="white"/>
<path fill-rule="evenodd" clip-rule="evenodd" d="M53.1236 10.9943C50.9396 10.9943 49.1625 9.23656 49.1625 7.07605C49.1625 4.91553 50.9395 3.15736 53.1236 3.15736C55.3076 3.15736 57.0843 4.91511 57.0843 7.07605C57.0843 9.23667 55.3077 10.9943 53.1236 10.9943ZM53.1236 4.67795C51.7869 4.67795 50.6996 5.75373 50.6996 7.07605C50.6996 8.39836 51.7869 9.47414 53.1236 9.47414C54.4604 9.47414 55.5476 8.39836 55.5476 7.07605C55.5476 5.75373 54.4604 4.67795 53.1236 4.67795Z" fill="white"/>
<path fill-rule="evenodd" clip-rule="evenodd" d="M26.946 43.2077C23.7059 43.2077 21.0701 40.5997 21.0701 37.3942C21.0701 34.1886 23.7064 31.5807 26.946 31.5807C30.1865 31.5807 32.8224 34.1886 32.8224 37.3942C32.8224 40.5997 30.1861 43.2077 26.946 43.2077ZM26.946 33.1014C24.5533 33.1014 22.6067 35.027 22.6067 37.3942C22.6067 39.7614 24.5533 41.687 26.946 41.687C29.3388 41.687 31.2854 39.7614 31.2854 37.3942C31.2854 35.027 29.3388 33.1014 26.946 33.1014Z" fill="white"/>
<path fill-rule="evenodd" clip-rule="evenodd" d="M42.9084 58.9983H27.5855C27.1612 58.9983 26.8168 58.6579 26.8168 58.2382C26.8168 57.818 27.1608 57.4781 27.5855 57.4781H42.9084C45.3011 57.4781 47.2477 55.5525 47.2477 53.1853V51.2906C47.2477 50.8708 47.5918 50.5304 48.0165 50.5304C48.4408 50.5304 48.7849 50.8708 48.7849 51.2906V53.1853C48.7849 56.3908 46.1486 58.9983 42.9089 58.9983L42.9084 58.9983Z" fill="white"/>
</svg>
